<?xml version="1.0" encoding="utf-8"?>
<!-- Generator: Adobe Illustrator 27.6.1, SVG Export Plug-In . SVG Version: 6.00 Build 0)  -->
<svg version="1.1" id="Layer_1" xmlns="http://www.w3.org/2000/svg" xmlns:xlink="http://www.w3.org/1999/xlink" x="0px" y="0px"
	 viewBox="0 0 172 193" style="enable-background:new 0 0 172 193;" xml:space="preserve">
<style type="text/css">
	.st0{fill:#FEFEFF;}
	.st1{fill:#EB46CA;}
	.st2{fill:#69E2E3;}
	.st3{fill:#403D4B;}
	.st4{fill:#306CDE;}
</style>
<g id="itZhOZ_00000080166108551447607720000004780179989594588848_">
	<g>
		<path class="st0" d="M0,193C0,128.7,0,64.3,0,0c57.3,0,114.7,0,172,0c0,64.3,0,128.7,0,193C114.7,193,57.3,193,0,193z M130.5,20.9
			c-0.2-0.2-0.1-0.8-0.6-0.7c-2.2-2.3-4.4-4.5-6.8-6.6c-0.1-0.7-0.4-0.9-1.1-0.9C101.7-3.5,71.1-3.7,50.7,12.5c-0.6,0-1,0.3-1.1,0.9
			c-0.4,0.3-0.7,0.5-1.1,0.8c-0.4,0-0.7,0.2-0.8,0.7c-0.4,0.4-0.8,0.7-1.2,1.1c-0.7,0.1-0.9,0.6-1.2,1.2c-0.7,0.6-1.4,1-1.8,1.9
			c-0.6,0.8-1.7,1.1-1.9,2.2c-1,1.2-2,2.2-2.7,3.7c-0.6,0.3-1.2,0.7-1.2,1.6c-0.2,0.3-0.4,0.6-0.6,1c-0.6,0.2-0.8,0.6-0.8,1.2
			c-0.4,0.8-0.8,1.5-1.3,2.3c-3.6,5.2-4.7,11.7-5.8,17.9c-0.9,0.9-0.3,2.9-0.6,4.2c-0.2,0.7-0.9,5.2,0.1,5
			c6.6,0.2,13.2,0.1,19.8,0.1c0.9,0.4,0.5-0.7,0.6-1.2c0.1-6.3,2.4-12.3,5.1-17.9c5.3-8.3,13.9-15.8,24.2-16.8
			c-0.1-0.3-0.1-0.4-0.1-0.5c5-0.9,10-0.6,15.1-0.1c0,0.2-0.1,0.3-0.1,0.5c7.7,0.8,14.3,5.4,19.7,10.7c0.1,0.7,0.4,1,1,1
			c0.6,0.9,0.7,2.2,1.9,2.6c1,2.6,3,4.7,4,7.3c0.1,0.9,0.8,5.1,1.6,4.9c1.3,2.3,0,8.8,1.6,9.5c6.6,0.1,13.2,0,19.8,0
			c1.1,0.5,0.6-10-0.4-10.2c-0.8-5.3-2.2-10.3-4.7-15.1c0.2-1.1-0.9-1.4-1.2-2.4l0,0l0,0c-0.2-0.6-0.5-1.1-0.8-1.7
			c0.1-0.6-0.2-0.9-0.7-1C133.8,25.5,132.2,23.1,130.5,20.9z M3.8,155.6c2.1,0.9,4.1,1.8,6.2,2.6c0.5,0.9,1.3,1.1,2.3,1
			c4.3,2.3,8.8,4.2,13.3,6.1c0,0,0,0.1,0,0.1c0.1,0,0.1,0,0.2-0.1c0.9,0.4,1.5,1,2.5,1.4c0.1,0,0.2-0.2,0.4-0.3
			c19.5,8.1,39.1,18.8,58.7,25.4c24.4-11,48.9-21.4,72.9-32.6c3.4-1.4,6.8-2.9,10.1-4.4c1.7-0.9,0.5-3.5,0.9-5.1
			c0-29.1,0-58.2,0-87.3c0-0.5-0.2-0.9-0.8-0.8c-5.4,0-10.8,0-16.3,0c-5.6,1.9-9.4,7.8-15,10.2c-12.3,6.9-26.1,10.5-40,12.1
			c-22,2.2-45.2-1-64.9-11.7C17.6,61.9,23.2,60.6,1.5,61.7c-0.5,0.6-0.3,1.4-0.3,2.1c0,0,0,0.1,0,0.1c-0.1,24.6-0.2,49.2-0.4,73.8
			c0,5.2,0,10.5,0,15.7C0.6,155,2.6,155.7,3.8,155.6z"/>
		<path class="st1" d="M28.2,68.7c36.8,22.9,90.6,22.3,124.1-6.4c5-1.4,10.6-0.1,15.8-0.5c1,0.2,3.1-0.7,3.2,0.8
			c0,21,0.1,42.1,0,63.1c-9,3.3-17.7,8-26.7,11.3c0,0,0-0.1-0.1-0.1c0.1-11.9,0-23.8,0-35.8c-0.1-1.3,0-2.2-1.4-1.1
			c-36.4,15.4-79,15.6-115.1-0.7C28.4,89.1,28,78.9,28.2,68.7z"/>
		<path class="st2" d="M146.4,165.6c-19.1,9-39.6,17.3-59,26.3c-19.6-6.6-39.2-17.2-58.7-25.4c-0.1,0.1-0.3,0.2-0.4,0.3
			c-0.7-0.4-1.4-0.5-1.8-1.1c0.4,0,0.8,0.1,1.2,0.1c0.5-9.7-0.3-19.6,0.3-29.2c18.8,9.1,38.3,17.1,57.4,25.9
			c19.9-6.6,39.7-17,59.3-25.6c0.3,9.7-0.1,19.5,0.2,29.3c0,0,0.1-0.1,0.1-0.1C145.3,165.9,145.8,165.7,146.4,165.6z"/>
		<path class="st3" d="M50.7,12.5c7.2-5.8,16.4-9.4,25-11.3c0.1,0,0.3-0.1,0.4-0.1c0,0,0,0,0,0s0,0,0,0c6.3-0.8,12.7-0.8,19-0.2
			C112,4,128.7,14.7,136.9,30.4c0,0.1,0,0.1,0.1,0.2c0,0,0,0,0,0c0.6,0.7,0.4,1.9,1.2,2.4c3,5.9,4.1,12.7,5.5,18.8
			c-0.3,1.7,1,5.7-0.4,6.4c-6.6,0-13.2,0.1-19.8,0c-0.2-2.4-0.1-4.8-0.7-7.2c0,0.1,0,0.3-0.1,0.5c-0.1-0.1-0.2-0.1-0.2-0.2
			c-1-2.4-0.2-5.6-2.2-7.5c-0.8-3.5-3.1-6.9-5.6-9.4c-4.7-5.8-11.2-10.1-18.5-11.8c0.1-0.1,0.1-0.2,0.2-0.4
			c-13.6-3-29,0.8-37.9,11.7c-0.3,0.3-0.7,0.6-0.9,1.1c-0.9,0.1-0.6,1.3-1.4,1.9c-2.5,3.3-5.1,7.7-5.6,12c-0.2,1.1-0.4,2.2-0.6,3.3
			c-1,1.2-0.1,4-0.5,5.8c-0.4-0.2-0.7,0-0.6,0.5c-6.6,0-13.2,0.2-19.8-0.1c0.1-2.1-0.2-4.7,0-7c1-2.5,0.9-5.5,1.6-8.1
			c1.9-4.6,3.4-9.7,5.9-14.2c0.9-0.4,0.7-1.5,1.4-2.1c1.2-0.3,1-1.7,1.7-2.5c0.9-1.6,2.6-2.6,3.3-4.3c1.7-2,3.9-3.7,5.6-5.5
			C49.3,13.7,50,13.1,50.7,12.5z M122.7,50.4C122.7,50.4,122.7,50.4,122.7,50.4C122.7,50.3,122.7,50.4,122.7,50.4
			C122.7,50.4,122.7,50.4,122.7,50.4z"/>
		<path class="st4" d="M27.9,136.6c-0.1,0.2-0.1,0.4-0.2,0.6c-8.2-4.6-17.6-7.9-26.3-12.1c-0.3-20.4,0.1-40.8-0.2-61.1c0,0,0,0,0,0
			c0,0,0,0-0.1-0.1c0-0.7-0.2-1.5,0.3-2.1c0,0,0,0,0,0c5.7-0.1,11.5,0,17.3,0c0,0,0,0,0,0c3.4,1.4,6.1,4.9,9.3,7
			C28.2,91.3,27.8,113.9,27.9,136.6z"/>
		<path class="st3" d="M1.5,125.1c8.7,4.2,18,7.5,26.3,12.1c0,9.5,0.3,19.2-0.1,28.7c-8.6-2.7-16.7-7.3-25-10.9
			c-1.2-0.5-1.3-0.6-1.3-1.9C1.4,143.7,1.2,134.3,1.5,125.1z"/>
		<path class="st3" d="M144.7,166c0.1-9.7-0.4-19.5,0.2-29.1c8.9-3.2,17.5-7.9,26.5-11.2c-1.1,36.9,7.9,24.8-26.5,40.3
			C144.8,166,144.7,166,144.7,166z"/>
		<path class="st2" d="M1.5,125.1c-0.3,9.3,0,18.6-0.1,27.9c-0.3,1.9,1.4,1.7,2.5,2.7c-1.2,0.1-3.2-0.7-3-2.3c0-5.2,0-10.5,0-15.7
			C1.1,115.1,1,92.5,1.2,69.8C1.6,88.2,1.1,106.7,1.5,125.1z"/>
		<path class="st2" d="M35.3,31c-1.6,3.9-3.1,8-4.6,11.9C31.4,38.7,33,34.4,35.3,31z"/>
		<path class="st2" d="M122.5,51.1c0.1,0.1,0.1,0.1,0.2,0.2c0-0.2,0-0.3,0.1-0.5c0.5,2.4,0.5,4.8,0.7,7.2
			C121.9,57.4,123.2,52.9,122.5,51.1z"/>
		<path class="st2" d="M116.5,36.6c1.7,1.8,3.1,4,3.6,6.4C118.9,40.8,117.2,38.9,116.5,36.6z"/>
		<path class="st2" d="M50.6,48.6c0.3-2.7,1.5-6,3.3-8.2C52.3,42.9,52.1,46,50.6,48.6z"/>
		<path class="st2" d="M120.3,43.6c1.3,1.1,1.6,3.3,1.6,4.9C121.1,48.7,120.4,44.5,120.3,43.6z"/>
		<path class="st2" d="M99.7,1.9c-1.3-0.4-3.9,0.3-4.4-1C96.8,1.2,98.4,1.1,99.7,1.9z"/>
		<path class="st2" d="M29,53c-0.1,1.7,0.2,3.5,0.1,5C28.1,58.3,28.8,53.7,29,53z"/>
		<path class="st2" d="M143.7,51.7c-0.8-0.9-0.4-2.6-0.8-3.7C144,48.8,143.5,50.4,143.7,51.7z"/>
		<path class="st2" d="M93.8,21.5c0.8,0.1,1.7,0.3,2.6,0.4c-0.1,0.2-0.1,0.3-0.2,0.4c-0.9-0.1-1.6-0.2-2.5-0.4
			C93.7,21.8,93.7,21.7,93.8,21.5z"/>
		<path class="st2" d="M114.7,34.2c0.9,0.3,1.3,1.3,1.6,2.1C115.3,36,115,35.1,114.7,34.2z"/>
		<path class="st2" d="M107.1,27.3c1.3,0.6,2.7,1.7,3.5,2.8C109.3,29.4,108.1,28.4,107.1,27.3z"/>
		<path class="st2" d="M54.6,39c0.6-0.7,0.8-2,1.6-2.4C55.7,37.4,55.5,38.5,54.6,39z"/>
		<path class="st2" d="M140.5,38.2c-0.8-0.9-0.9-2.2-1.3-3.2C139.8,36,140.4,37,140.5,38.2z"/>
		<path class="st2" d="M77,21.9c0.6-0.1,1.2-0.2,1.7-0.3c0,0.1,0.1,0.3,0.1,0.5c-0.7,0.1-1.4,0.1-2.1,0.2C76.8,22.2,76.9,22,77,21.9
			z"/>
		<path class="st2" d="M75.8,1.2c-0.5,0.8-1.9,0.4-2.7,0.7C73.9,1.5,74.8,1.1,75.8,1.2z"/>
		<path class="st2" d="M10,158.3c0.8,0.3,1.5,0.6,2.3,1C11.4,159.3,10.5,159.2,10,158.3z"/>
		<path class="st2" d="M39.1,24.9c-0.2,0.7-0.4,1.4-1.2,1.6C37.9,25.7,38.5,25.3,39.1,24.9z"/>
		<path class="st2" d="M142,43.2c-0.6-1-0.8-2.2-1.1-3.3C141.5,40.9,142.1,42.1,142,43.2z"/>
		<path class="st2" d="M15,160.5c0.9,0.5,1.9,0.7,2.6,1.4C16.7,161.5,15.6,161.4,15,160.5z"/>
		<path class="st2" d="M29.5,48.9c0.1,0.7,0.1,1.5-0.5,2.1C29.2,50.3,28.8,49.2,29.5,48.9z"/>
		<path class="st2" d="M138.2,32.9c-0.6-0.2-0.5-1-0.8-1.5C138,31.7,138.3,32.2,138.2,32.9z"/>
		<path class="st2" d="M43,19.8c-0.1,0.8-0.6,1.2-1.2,1.5C42,20.6,42.3,20,43,19.8z"/>
		<path class="st2" d="M49.6,53.6c0.1-0.6-0.5-1.5,0.4-1.7C49.8,52.4,49.7,53,49.6,53.6z"/>
		<path class="st2" d="M41.2,22.1c-0.5,0.6-1,1.3-1.5,1.9C40,23.2,40.4,22.5,41.2,22.1z"/>
		<path class="st4" d="M136.9,30.4c-0.7-0.3-0.9-0.9-1-1.5c0.1,0,0.2,0,0.3,0C136.5,29.3,136.7,29.8,136.9,30.4z"/>
		<path class="st2" d="M45.1,17.5c-0.5,0.5-1,1-1.4,1.5C44,18.4,44.3,17.8,45.1,17.5z"/>
		<path class="st2" d="M123.1,13.6c-0.4-0.3-0.7-0.6-1.1-0.9C122.7,12.7,123,12.9,123.1,13.6z"/>
		<path class="st2" d="M136.2,28.8c-0.1,0-0.2,0-0.3,0c-0.1-0.4-0.3-0.7-0.4-1.1C136,27.9,136.3,28.3,136.2,28.8z"/>
		<path class="st2" d="M58.5,33.7c0-0.7,0.8-0.9,1.2-1.3C59.3,32.8,58.9,33.2,58.5,33.7z"/>
		<path class="st2" d="M46.6,16c-0.2,0.6-0.6,1-1.2,1.2C45.7,16.7,45.9,16.1,46.6,16z"/>
		<path class="st2" d="M113.3,32.7c0.3,0.3,0.7,0.7,1,1C113.8,33.7,113.5,33.4,113.3,32.7z"/>
		<path class="st2" d="M37.4,27.5c-0.1,0.5-0.2,1-0.8,1.2C36.6,28.1,36.8,27.7,37.4,27.5z"/>
		<path class="st2" d="M50.7,12.5c-0.4,0.3-0.7,0.6-1.1,0.9C49.7,12.8,50.2,12.6,50.7,12.5z"/>
		<path class="st2" d="M56.9,35.6c0-0.4,0-0.9,0.7-0.9C57.3,35,57.1,35.3,56.9,35.6z"/>
		<path class="st2" d="M48.8,58.1c0-0.5,0.2-0.6,0.6-0.5C49.5,58.2,49.3,58.3,48.8,58.1z"/>
		<path class="st2" d="M48.6,14.3c0,0.5-0.4,0.6-0.8,0.7C47.8,14.5,48.1,14.3,48.6,14.3z"/>
		<path class="st4" d="M77,21.9c-0.1,0.1-0.1,0.3-0.2,0.4c-0.1,0-0.3,0-0.4,0.1c0,0-0.1-0.1-0.1-0.1C76.5,22.1,76.7,22,77,21.9z"/>
		<path class="st2" d="M130.4,20.8c-0.2-0.2-0.4-0.4-0.6-0.7C130.3,20.1,130.3,20.5,130.4,20.8z"/>
		<path class="st2" d="M111.3,30.7c0.2,0.2,0.4,0.3,0.5,0.5C111.7,31.1,111.5,30.9,111.3,30.7z"/>
		<path class="st2" d="M122.2,50.2c0.1,0.2,0.2,0.3,0.3,0.5C122.3,50.5,122.3,50.3,122.2,50.2z"/>
		<path class="st2" d="M130.8,21.2c-0.1-0.1-0.2-0.2-0.3-0.3C130.6,21,130.7,21.1,130.8,21.2z"/>
		<path class="st2" d="M60.6,31.3c0.1-0.1,0.2-0.1,0.3-0.2C60.7,31.2,60.6,31.2,60.6,31.3z"/>
		<path class="st2" d="M62.1,30c0.1-0.1,0.2-0.2,0.3-0.2C62.2,29.9,62.1,30,62.1,30z"/>
		<path class="st2" d="M19.7,61.8c-0.1,0-0.2-0.1-0.3-0.1C19.4,61.8,19.6,61.8,19.7,61.8z"/>
		<path class="st2" d="M25.6,165.3c0.1,0,0.1,0.1,0.2,0.1c-0.1,0-0.1,0-0.2,0.1C25.6,165.4,25.6,165.4,25.6,165.3z"/>
		<path class="st2" d="M25.1,165.1c0.1,0,0.1,0.1,0.2,0.1C25.2,165.2,25.2,165.1,25.1,165.1z"/>
		<path class="st4" d="M57.8,34.4c0,0,0.1-0.1,0.1-0.1C57.9,34.3,57.8,34.3,57.8,34.4z"/>
		<path class="st2" d="M76.3,22.3c0,0,0.1,0.1,0.1,0.1c-0.1,0-0.2,0-0.3,0C76.2,22.4,76.2,22.3,76.3,22.3z"/>
		<path class="st2" d="M136.5,29.3c0-0.1-0.1-0.1-0.1-0.2C136.4,29.2,136.4,29.2,136.5,29.3z"/>
		<path class="st2" d="M20.1,62.1C20.1,62.1,20,62,20,62C20,62,20.1,62.1,20.1,62.1z"/>
		<path class="st4" d="M137,30.5C137,30.5,137,30.5,137,30.5L137,30.5z"/>
		<path class="st2" d="M1.2,63.9C1.3,63.9,1.3,63.9,1.2,63.9C1.3,63.9,1.3,63.9,1.2,63.9C1.2,63.9,1.2,63.9,1.2,63.9z"/>
		<path class="st2" d="M18.9,61.7L18.9,61.7c-0.1,0-0.1,0-0.1,0C18.9,61.7,18.9,61.7,18.9,61.7z"/>
		<path class="st2" d="M1.6,61.7L1.6,61.7C1.5,61.7,1.6,61.7,1.6,61.7z"/>
		<path class="st2" d="M76.3,1.1L76.3,1.1C76.2,1.1,76.2,1.1,76.3,1.1z"/>
		<path class="st0" d="M27.9,136.6c-0.1-12.1,0.1-24.2,0-36.2c0.1,0,0-0.1,0-0.1c0.1-0.3,0.1-0.6,0.2-0.9
			c36.1,16.3,78.7,16.1,115.1,0.7c1.2-1,1.5-0.2,1.4,1.1c0,11.9,0,23.8,0,35.8c-19.5,8.5-39.4,19-59.3,25.6
			C66.2,153.7,46.8,145.7,27.9,136.6z"/>
		<path class="st4" d="M144.8,136.9c-0.1,0.1-0.1,0.3-0.2,0.4c0-0.1,0-0.2,0-0.3C144.7,136.9,144.7,136.9,144.8,136.9z"/>
		<path class="st4" d="M27.7,165.8c0.1-0.2,0.1-0.3,0.2-0.5C27.8,165.5,27.7,165.7,27.7,165.8z"/>
		<path class="st4" d="M144.7,166c0,0,0.1,0,0.1,0c0,0-0.1,0.1-0.1,0.1C144.7,166.1,144.7,166,144.7,166z"/>
		<path class="st2" d="M122.7,50.4C122.7,50.4,122.7,50.4,122.7,50.4C122.7,50.4,122.7,50.3,122.7,50.4
			C122.7,50.4,122.7,50.4,122.7,50.4z"/>
		<path class="st2" d="M27.9,135.7c0,0.2,0,0.3,0,0.5C27.9,136,27.9,135.8,27.9,135.7z"/>
		<path class="st2" d="M27.9,100.2c0,0,0.1,0.1,0,0.1C27.8,100.3,27.8,100.3,27.9,100.2z"/>
	</g>
</g>
</svg>
